#!OML:ASF Y:\EmotionMaleHayes\Project 1\Capture day 1\Session 1\Male1.ASF
:FULLY-SPECIFIED
:DEGREES
650
root 44.3224 17.2115 -0.897169 55.3169 85.8438 66.2907
lowerback 9.00948 2.70932 -6.69168
upperback 0.520367 2.91329 -1.22923
thorax -4.782 1.59017 2.08481
lowerneck -17.7664 0.726614 3.81889
upperneck 18.9686 -0.261935 1.46171
head 8.88253 0.367939 -0.157009
rclavicle 6.5102e-015 1.43125e-014
rhumerus -46.1188 1.53846 -85.333
rradius 39.875
rwrist -17.6764
rhand -9.47025 -29.8482
rfingers 7.12502
rthumb 16.4937 -59.1671
lclavicle 6.5102e-015 1.43125e-014
lhumerus -42.2011 -13.8747 91.3371
lradius 32.6585
lwrist 11.3066
lhand -20.1803 -20.0007
lfingers 7.12502
lthumb 6.16577 9.88953
rfemur 15.0699 0.346693 9.49632
rtibia 10.9549
rfoot -197.548 -182.48
rtoes 9.50658
lfemur 19.1669 0.755522 -17.4037
ltibia 7.28847
lfoot -15.8039 11.112
ltoes -7.55265
651
root 44.3214 17.2119 -0.896049 53.32 85.9504 64.228
lowerback 9.00618 2.73475 -6.56298
upperback 0.504187 2.95992 -1.19828
thorax -4.79633 1.6109 2.03866
lowerneck -17.8465 0.707742 3.78481
upperneck 19.0336 -0.305352 1.56133
head 8.91936 0.358398 -0.122483
rclavicle 2.33572e-015 4.09496e-014
rhumerus -46.1151 1.37563 -85.2841
rradius 39.8819
rwrist -17.6653
rhand -9.40193 -30.0285
rfingers 7.12502
rthumb 16.5595 -59.3419
lclavicle 2.33572e-015 4.09496e-014
lhumerus -42.1563 -13.8064 91.2809
lradius 32.5674
lwrist 11.3602
lhand -20.1317 -19.9471
lfingers 7.12502
lthumb 6.21268 9.94181
rfemur 14.9631 0.515426 9.79183
rtibia 10.9805
rfoot -197.597 -182.606
rtoes 9.58104
lfemur 19.0526 0.820342 -17.1505
ltibia 7.36996
lfoot -15.8421 11.173
ltoes -7.37287
652
root 44.3245 17.21 -0.896392 49.7575 86.175 60.6769
lowerback 9.03173 2.75628 -6.23638
upperback 0.523446 3.02197 -1.13423
thorax -4.78199 1.63377 1.91463
lowerneck -17.9934 0.66748 3.72725
upperneck 19.1603 -0.374787 1.65209
head 8.98923 0.335757 -0.0900847
rclavicle 4.96962e-015 4.85035e-014
rhumerus -46.08 1.19101 -85.2424
rradius 39.8207
rwrist -17.6484
rhand -9.51054 -29.9383
rfingers 7.12502
rthumb 16.4549 -59.2604
lclavicle 4.96962e-015 4.85035e-014
lhumerus -42.1243 -13.7524 91.2041
lradius 32.5323
lwrist 11.2404
lhand -20.1004 -19.7444
lfingers 7.12502
lthumb 6.2429 10.1436
rfemur 14.9953 0.592618 10.2307
rtibia 10.9477
rfoot -197.582 -182.671
rtoes 9.55048
lfemur 19.1128 0.861057 -16.7308
ltibia 7.32197
lfoot -15.6549 11.2628
ltoes -8.75236
653
root 44.3295 17.2113 -0.898187 50.059 86.0915 60.928
lowerback 8.96604 2.77414 -6.33367
upperback 0.539023 3.04097 -1.17483
thorax -4.73325 1.64386 1.92717
lowerneck -18.2241 0.716571 3.93796
upperneck 19.4007 -0.330303 1.41757
head 9.11362 0.352376 -0.198091
rclavicle -2.57923e-014 3.33958e-014
rhumerus -46.0315 1.118 -85.2633
rradius 39.7119
rwrist -17.6706
rhand -9.72205 -29.8211
rfingers 7.12502
rthumb 16.2513 -59.16
lclavicle -2.57923e-014 3.33958e-014
lhumerus -42.0688 -13.7834 91.1682
lradius 32.4576
lwrist 11.2018
lhand -20.1177 -19.631
lfingers 7.12502
lthumb 6.22615 10.2575
rfemur 14.968 0.605335 10.1271
rtibia 10.917
rfoot -197.534 -182.698
rtoes 9.30117
lfemur 19.106 0.812148 -16.8651
ltibia 7.25551
lfoot -15.4858 11.3564
ltoes -10.1267
654
root 44.3351 17.2138 -0.905103 54.6333 85.7331 65.3892
lowerback 8.82935 2.75891 -6.78646
upperback 0.538971 2.98326 -1.33768
thorax -4.6666 1.62331 2.02308
lowerneck -18.41 0.759103 4.02747
upperneck 19.5931 -0.305684 1.40054
head 9.21467 0.374402 -0.214407
rclavicle -2.89232e-014 -1.47101e-014
rhumerus -46.0393 1.1888 -85.365
rradius 39.6921
rwrist -17.6712
rhand -9.85102 -29.8641
rfingers 7.12502
rthumb 16.1271 -59.2131
lclavicle -2.89232e-014 -1.47101e-014
lhumerus -41.972 -13.8247 91.1274
lradius 32.3341
lwrist 11.1606
lhand -20.0984 -19.5932
lfingers 7.12502
lthumb 6.24481 10.2948
rfemur 14.8906 0.365742 9.38671
rtibia 10.9001
rfoot -197.467 -182.524
rtoes 9.10296
lfemur 18.9779 0.731724 -17.5647
ltibia 7.26442
lfoot -15.5909 11.3726
ltoes -9.80871
655
root 44.3406 17.213 -0.90879 56.0726 85.6499 66.8179
lowerback 8.81535 2.73505 -6.90501
upperback 0.540578 2.94017 -1.3864
thorax -4.65672 1.60427 2.0447
lowerneck -18.42 0.792674 3.98809
upperneck 19.6647 -0.267563 1.48586
head 9.24236 0.401332 -0.17318
rclavicle 1.0635e-014 -2.22639e-014
rhumerus -46.1523 1.06951 -85.3409
rradius 39.8249
rwrist -17.4193
rhand -9.83186 -29.7988
rfingers 7.12502
rthumb 16.1456 -59.1464
lclavicle 1.0635e-014 -2.22639e-014
lhumerus -41.943 -13.761 91.0807
lradius 32.2312
lwrist 11.0799
lhand -20.0252 -19.6435
lfingers 7.12502
lthumb 6.31549 10.2423
rfemur 14.9613 0.22966 9.14218
rtibia 10.8098
rfoot -197.435 -182.42
rtoes 9.07076
lfemur 18.9951 0.659407 -17.7792
ltibia 7.24442
lfoot -15.8547 11.2556
ltoes -7.83828
656
root 44.3431 17.2145 -0.906971 56.4816 85.5892 67.1775
lowerback 8.77466 2.74531 -7.04628
upperback 0.527891 2.94276 -1.39133
thorax -4.65453 1.60874 2.11904
lowerneck -18.3681 0.776002 3.94468
upperneck 19.68 -0.278735 1.50362
head 9.23802 0.39535 -0.161469
rclavicle -2.98177e-016 -1.98785e-014
rhumerus -46.2685 0.818917 -85.2372
rradius 39.923
rwrist -17.1551
rhand -9.912 -29.3688
rfingers 7.12502
rthumb 16.0684 -58.7226
lclavicle -2.98177e-016 -1.98785e-014
lhumerus -41.923 -13.7076 91.0874
lradius 32.092
lwrist 11.0618
lhand -20.0269 -19.8987
lfingers 7.12502
lthumb 6.31384 9.98721
rfemur 14.9256 0.336368 9.11467
rtibia 10.7792
rfoot -197.481 -182.492
rtoes 9.03954
lfemur 18.9342 0.685622 -17.8242
ltibia 7.25579
lfoot -15.905 11.2132
ltoes -7.06959
657
root 44.3429 17.2169 -0.906433 54.1634 85.8189 64.7749
lowerback 8.92284 2.74789 -6.82278
upperback 0.362489 2.9464 -1.30649
thorax -4.90545 1.61445 2.07118
lowerneck -18.274 0.738555 3.99954
upperneck 19.8268 -0.326364 1.44494
head 9.27124 0.375275 -0.196679
rclavicle 1.04362e-015 1.19271e-015
rhumerus -46.487 0.867331 -85.3049
rradius 39.7837
rwrist -17.2341
rhand -10.0633 -28.7932
rfingers 7.12502
rthumb 15.9227 -58.1586
lclavicle 1.04362e-015 1.19271e-015
lhumerus -42.1571 -13.5731 91.1163
lradius 32.0601
lwrist 10.9524
lhand -20.0955 -20.1895
lfingers 7.12502
lthumb 6.2476 9.69833
rfemur 14.8018 0.434912 9.54103
rtibia 10.8048
rfoot -197.487 -182.635
rtoes 9.27633
lfemur 18.8478 0.720831 -17.4353
ltibia 7.26188
lfoot -15.8655 11.2286
ltoes -6.98293
658
root 44.3518 17.217 -0.910202 57.1717 85.6055 67.7929
lowerback 8.87671 2.74451 -7.12074
upperback 0.382269 2.9156 -1.39436
thorax -4.86658 1.60478 2.15182
lowerneck -18.2762 0.690748 4.09807
upperneck 19.8436 -0.373036 1.23077
head 9.27558 0.336431 -0.292999
rclavicle 1.86858e-014 5.1684e-015
rhumerus -46.4416 0.941128 -85.3944
rradius 39.6023
rwrist -17.3305
rhand -10.0964 -28.4815
rfingers 7.12502
rthumb 15.8909 -57.8495
lclavicle 1.86858e-014 5.1684e-015
lhumerus -42.1759 -13.4466 91.1011
lradius 32.0947
lwrist 10.836
lhand -20.116 -20.2793
lfingers 7.12502
lthumb 6.22781 9.60911
rfemur 14.8948 0.20442 9.04854
rtibia 10.687
rfoot -197.334 -182.566
rtoes 9.00827
lfemur 18.875 0.731245 -17.8483
ltibia 7.25244
lfoot -15.9553 11.1927
ltoes -6.23313
659
root 44.3468 17.218 -0.906397 53.6452 85.8148 64.2741
lowerback 8.96556 2.75976 -6.911
upperback 0.406975 2.95327 -1.28537
thorax -4.88888 1.61894 2.14075
lowerneck -17.8281 0.767799 4.08175
upperneck 19.2478 -0.22987 1.22623
head 8.98972 0.384068 -0.275569
rclavicle 7.20594e-015 -1.78906e-014
rhumerus -46.3501 1.00502 -85.4655
rradius 39.5826
rwrist -17.3337
rhand -9.95106 -28.6344
rfingers 7.12502
rthumb 16.0308 -57.9912
lclavicle 7.20594e-015 -1.78906e-014
lhumerus -42.0706 -13.3925 91.1222
lradius 32.0444
lwrist 10.914
lhand -20.1412 -20.3087
lfingers 7.12502
lthumb 6.20354 9.58048
rfemur 14.8678 0.654186 9.66109
rtibia 10.6906
rfoot -197.441 -182.882
rtoes 9.71468
lfemur 18.8804 0.700598 -17.4148
ltibia 7.27257
lfoot -15.866 11.3726
ltoes -6.92241
660
root 44.3544 17.2153 -0.908229 54.9683 85.6063 65.7005
lowerback 9.01172 2.75549 -7.18649
upperback 0.49112 2.92003 -1.35602
thorax -4.83335 1.6061 2.22516
lowerneck -17.8191 0.812419 4.18003
upperneck 19.07 -0.179605 1.15616
head 8.92757 0.401609 -0.309726
rclavicle 1.30701e-014 -2.78299e-015
rhumerus -46.2544 1.13155 -85.6318
rradius 39.5608
rwrist -17.3948
rhand -9.79855 -28.9897
rfingers 7.12502
rthumb 16.1776 -58.3346
lclavicle 1.30701e-014 -2.78299e-015
lhumerus -41.9398 -13.2661 91.0626
lradius 31.9942
lwrist 10.9653
lhand -20.1241 -20.284
lfingers 7.12502
lthumb 6.21999 9.60468
rfemur 15.0612 0.716669 9.37387
rtibia 10.5241
rfoot -197.375 -182.924
rtoes 9.28798
lfemur 19.0464 0.69337 -17.7193
ltibia 7.19106
lfoot -15.5929 11.5665
ltoes -9.16454
